<svg width="32" height="32" xmlns="http://www.w3.org/2000/svg">
 <defs>
  <clipPath id="clip0_802_38">
   <rect id="svg_1" fill="white" height="32" width="32"/>
  </clipPath>
 </defs>
 <g>
  <title>background</title>
  <rect fill="#313135" id="canvas_background" height="34" width="34" y="-1" x="-1"/>
 </g>
 <g>
  <title>Layer 1</title>
  <g id="svg_2" clip-path="url(#clip0_802_38)">
   <path id="svg_23" fill="#56BBF1" d="m13.75223,0.77486c-0.1326,0.00001 -0.2598,0.0527 -0.3535,0.14646c-0.0938,0.09377 -0.1465,0.22094 -0.1465,0.35354l0,0.79297c-0.2658,0.084 -0.5214,0.18941 -0.7695,0.31641l-0.5586,-0.5586c-0.0938,-0.09373 -0.221,-0.14639 -0.3535,-0.14639c-0.1326,0 -0.2598,0.05266 -0.3536,0.14639l-1.414,1.41406c-0.09375,0.09378 -0.14641,0.22093 -0.14641,0.35352c0,0.13259 0.05266,0.25974 0.14641,0.35352l0.5586,0.55859c-0.1277,0.2476 -0.2337,0.50423 -0.3184,0.76953l-0.791,0c-0.1326,0.00001 -0.25977,0.0527 -0.35354,0.14646c-0.09376,0.09377 -0.14645,0.22094 -0.14646,0.35354l0,2c0.00001,0.1326 0.0527,0.25977 0.14646,0.35354c0.09377,0.09376 0.22094,0.14645 0.35354,0.14646l0.791,0c0.084,0.2663 0.1892,0.52298 0.3164,0.77148l-0.5566,0.55664c-0.09375,0.09378 -0.14641,0.22098 -0.14641,0.35348c0,0.1326 0.05266,0.2598 0.14641,0.3536l1.414,1.414c0.0938,0.0938 0.221,0.1464 0.3536,0.1464c0.1325,0 0.2597,-0.0526 0.3535,-0.1464l0.5586,-0.5586c0.2481,0.1279 0.5036,0.2355 0.7695,0.3203l0,0.7891c0,0.1326 0.0527,0.2598 0.1465,0.3535c0.0937,0.0938 0.2209,0.1465 0.3535,0.1465l2,0c0.1326,0 0.2598,-0.0527 0.3535,-0.1465c0.0938,-0.0937 0.1465,-0.2209 0.1465,-0.3535l0,-0.791c0.2664,-0.084 0.5229,-0.189 0.7715,-0.3164l0.5566,0.5566c0.0938,0.0938 0.221,0.1464 0.3535,0.1464c0.1326,0 0.2598,-0.0526 0.3536,-0.1464l1.414,-1.414c0.0938,-0.0938 0.1464,-0.221 0.1464,-0.3536c0,-0.1325 -0.0526,-0.2597 -0.1464,-0.35348l-0.5566,-0.55664c0.1279,-0.2481 0.2336,-0.50548 0.3183,-0.77148l0.7891,0c0.1326,-0.00001 0.2598,-0.0527 0.3535,-0.14646c0.0938,-0.09377 0.1465,-0.22094 0.1465,-0.35354l0,-2c0,-0.1326 -0.0527,-0.25977 -0.1465,-0.35354c-0.0937,-0.09376 -0.2209,-0.14645 -0.3535,-0.14646l-0.791,0c-0.0841,-0.2662 -0.1891,-0.52298 -0.3164,-0.77148l0.5566,-0.55664c0.0938,-0.09378 0.1464,-0.22093 0.1464,-0.35352c0,-0.13259 -0.0526,-0.25974 -0.1464,-0.35352l-1.414,-1.41406c-0.0938,-0.09373 -0.221,-0.14639 -0.3536,-0.14639c-0.1325,0 -0.2597,0.05266 -0.3535,0.14639l-0.5586,0.5586c-0.2479,-0.1277 -0.5038,-0.23356 -0.7695,-0.31836l0,-0.79102c0,-0.1326 -0.0527,-0.25977 -0.1465,-0.35354c-0.0937,-0.09376 -0.2209,-0.14645 -0.3535,-0.14646l-2,0zm0.5,1l1,0l0,0.61719c-0.0002,0.1134 0.0382,0.22349 0.1088,0.31221c0.0706,0.08873 0.1693,0.15081 0.2799,0.17607c0.4384,0.1 0.8574,0.27262 1.2383,0.51172c0.0959,0.06008 0.2093,0.08584 0.3218,0.07307c0.1125,-0.01277 0.2173,-0.06332 0.2973,-0.14338l0.4355,-0.43555l0.7071,0.70703l-0.4336,0.43359c-0.0801,0.08001 -0.1306,0.18482 -0.1434,0.29728c-0.0128,0.11247 0.013,0.22594 0.0731,0.32186c0.238,0.3817 0.4091,0.80134 0.5078,1.24024c0.0252,0.11055 0.0873,0.20923 0.176,0.27986c0.0888,0.07062 0.1989,0.10899 0.3123,0.10881l0.6191,0l0,1l-0.6172,0c-0.1137,-0.00008 -0.224,0.03857 -0.3127,0.10958c-0.0888,0.071 -0.1507,0.17013 -0.1756,0.28104c-0.0999,0.4384 -0.2726,0.85543 -0.5117,1.23633c-0.0601,0.09593 -0.0858,0.2094 -0.0731,0.32186c0.0128,0.11247 0.0634,0.21727 0.1434,0.29728l0.4356,0.43551l-0.7071,0.7071l-0.4336,-0.4336c-0.0798,-0.0796 -0.1843,-0.1299 -0.2963,-0.1426c-0.112,-0.0128 -0.2251,0.0127 -0.3208,0.0723c-0.3817,0.2381 -0.8014,0.411 -1.2403,0.5097c-0.1106,0.0248 -0.2094,0.0865 -0.2804,0.1748c-0.071,0.0884 -0.1098,0.1982 -0.1102,0.3116l0,0.6191l-1,0l0,-0.6172c-0.0003,-0.1131 -0.0388,-0.2227 -0.1094,-0.311c-0.0706,-0.0883 -0.169,-0.1501 -0.2793,-0.1753c-0.4384,-0.1 -0.8574,-0.2726 -1.2383,-0.5117c-0.0955,-0.0606 -0.2087,-0.087 -0.3211,-0.075c-0.1125,0.0121 -0.2175,0.0619 -0.298,0.1414l-0.4355,0.4355l-0.7071,-0.707l0.4336,-0.43361c0.0796,-0.07988 0.1299,-0.18431 0.1426,-0.29635c0.0128,-0.11204 -0.0127,-0.2251 -0.0723,-0.32083c-0.238,-0.3817 -0.4091,-0.80144 -0.5078,-1.24024c-0.0249,-0.11091 -0.0868,-0.21004 -0.1755,-0.28105c-0.0888,-0.071 -0.1991,-0.10965 -0.3128,-0.10957l-0.6191,0l0,-1l0.6172,0c0.1134,0.00018 0.2235,-0.03819 0.3122,-0.10882c0.0887,-0.07062 0.1508,-0.1693 0.1761,-0.27985c0.0999,-0.4385 0.2726,-0.85543 0.5117,-1.23633c0.0606,-0.09612 0.0866,-0.21 0.0738,-0.32289c-0.0127,-0.11289 -0.0636,-0.21807 -0.1441,-0.29821l-0.4356,-0.43554l0.7071,-0.70703l0.4336,0.43359c0.0796,0.0799 0.1839,0.13052 0.296,0.14364c0.112,0.01312 0.2252,-0.01204 0.3211,-0.07138c0.3817,-0.238 0.8014,-0.41116 1.2403,-0.50976c0.1106,-0.0248 0.2094,-0.08643 0.2804,-0.17479c0.071,-0.08836 0.1098,-0.19821 0.1102,-0.31154l0,-0.61914zm0.5,1.65625c-1.8414,0 -3.3457,1.50245 -3.3457,3.34375c0,1.8414 1.5043,3.3457 3.3457,3.3457c1.8414,0 3.3457,-1.5043 3.3457,-3.3457c0,-1.8413 -1.5043,-3.34375 -3.3457,-3.34375zm0,1c1.3009,0 2.3457,1.04285 2.3457,2.34375c0,1.301 -1.0448,2.3457 -2.3457,2.3457c-1.3009,0 -2.3457,-1.0447 -2.3457,-2.3457c0,-1.3009 1.0448,-2.34375 2.3457,-2.34375zm8.8184,6.34375c-0.1326,0 -0.2598,0.0527 -0.3536,0.1465c-0.0937,0.0937 -0.1464,0.2209 -0.1464,0.3535l0,0.9961c-0.3552,0.1076 -0.6972,0.2468 -1.0254,0.4199l-0.6992,-0.6992c-0.0938,-0.0937 -0.221,-0.1464 -0.3536,-0.1464c-0.1326,0 -0.2597,0.0527 -0.3535,0.1464l-1.6719,1.6699c-0.0937,0.0938 -0.1463,0.2209 -0.1463,0.3535c0,0.1326 0.0526,0.2598 0.1463,0.3536l0.7032,0.7031c-0.1737,0.3274 -0.3154,0.6671 -0.4239,1.0215l-0.9941,0c-0.1326,0 -0.2598,0.0527 -0.3535,0.1464c-0.0938,0.0938 -0.1465,0.221 -0.1465,0.3536l0,2.3652c0,0.1326 0.0527,0.2598 0.1465,0.3535c0.0937,0.0938 0.2209,0.1465 0.3535,0.1465l0.9941,0c0.1074,0.3546 0.2472,0.6956 0.42,1.0234l-0.6993,0.7012c-0.0937,0.0938 -0.1463,0.2209 -0.1463,0.3535c0,0.1326 0.0526,0.2598 0.1463,0.3535l1.6719,1.67c0.0938,0.0937 0.2209,0.1463 0.3535,0.1463c0.1326,0 0.2598,-0.0526 0.3536,-0.1463l0.7011,-0.7012c0.3277,0.1739 0.6687,0.3154 1.0235,0.4238l0,0.9922c0,0.1326 0.0527,0.2598 0.1464,0.3535c0.0938,0.0938 0.221,0.1465 0.3536,0.1465l2.3632,0c0.1326,0 0.2598,-0.0527 0.3536,-0.1465c0.0937,-0.0937 0.1464,-0.2209 0.1464,-0.3535l0,-0.9941c0.3552,-0.1076 0.6972,-0.2469 1.0254,-0.42l0.6992,0.6993c0.0938,0.0937 0.221,0.1463 0.3536,0.1463c0.1326,0 0.2597,-0.0526 0.3535,-0.1463l1.6719,-1.67c0.0937,-0.0937 0.1463,-0.2209 0.1463,-0.3535c0,-0.1326 -0.0526,-0.2597 -0.1463,-0.3535l-0.7032,-0.7031c0.1736,-0.327 0.3155,-0.6675 0.4239,-1.0215l0.9941,0c0.1326,0 0.2598,-0.0527 0.3535,-0.1465c0.0938,-0.0937 0.1465,-0.2209 0.1465,-0.3535l0,-2.3652c0,-0.1326 -0.0527,-0.2598 -0.1465,-0.3536c-0.0937,-0.0937 -0.2209,-0.1464 -0.3535,-0.1464l-0.9941,0c-0.1074,-0.3546 -0.2472,-0.6957 -0.42,-1.0235l0.6993,-0.7011c0.0937,-0.0938 0.1463,-0.221 0.1463,-0.3536c0,-0.1326 -0.0526,-0.2597 -0.1463,-0.3535l-1.6719,-1.6699c-0.0938,-0.0937 -0.2209,-0.1464 -0.3535,-0.1464c-0.1326,0 -0.2598,0.0527 -0.3536,0.1464l-0.7011,0.7012c-0.3277,-0.1739 -0.6687,-0.3154 -1.0235,-0.4239l0,-0.9941c0,-0.1326 -0.0527,-0.2598 -0.1464,-0.3535c-0.0938,-0.0938 -0.221,-0.1465 -0.3536,-0.1465l-2.3632,0zm0.5,1l1.3632,0l0,0.8203c-0.0001,0.1134 0.0382,0.2235 0.1089,0.3122c0.0706,0.0888 0.1693,0.1508 0.2798,0.1761c0.5282,0.1204 1.0334,0.3292 1.4922,0.6172c0.0959,0.0601 0.2094,0.0858 0.3219,0.0731c0.1124,-0.0128 0.2172,-0.0634 0.2972,-0.1434l0.5782,-0.5782l0.9648,0.9629l-0.5762,0.5782c-0.0799,0.0796 -0.1305,0.1839 -0.1436,0.296c-0.0131,0.112 0.012,0.2252 0.0714,0.3211c0.2867,0.4597 0.4944,0.9656 0.6133,1.4942c0.0252,0.1105 0.0873,0.2092 0.176,0.2798c0.0887,0.0707 0.1988,0.109 0.3122,0.1089l0.8223,0l0,1.3652l-0.8203,0c-0.1134,-0.0002 -0.2235,0.0382 -0.3122,0.1088c-0.0888,0.0706 -0.1508,0.1693 -0.1761,0.2799c-0.1203,0.5282 -0.3272,1.0314 -0.6152,1.4902c-0.0604,0.0957 -0.0864,0.2091 -0.074,0.3215c0.0124,0.1125 0.0626,0.2174 0.1423,0.2976l0.5801,0.5801l-0.9648,0.9629l-0.5762,-0.5762c-0.08,-0.08 -0.1848,-0.1306 -0.2973,-0.1433c-0.1125,-0.0128 -0.2259,0.0129 -0.3218,0.073c-0.4598,0.2867 -0.9636,0.4945 -1.4922,0.6133c-0.1106,0.0248 -0.2095,0.0864 -0.2805,0.1748c-0.0709,0.0884 -0.1098,0.1982 -0.1102,0.3115l0,0.8223l-1.3632,0l0,-0.8203c-0.0003,-0.1131 -0.0389,-0.2227 -0.1095,-0.311c-0.0706,-0.0884 -0.169,-0.1502 -0.2792,-0.1753c-0.5282,-0.1204 -1.0334,-0.3292 -1.4922,-0.6172c-0.0959,-0.0601 -0.2094,-0.0859 -0.3219,-0.0731c-0.1124,0.0128 -0.2172,0.0633 -0.2972,0.1434l-0.5782,0.5781l-0.9648,-0.9629l0.5762,-0.5781c0.0799,-0.0796 0.1305,-0.184 0.1436,-0.296c0.0131,-0.1121 -0.012,-0.2252 -0.0714,-0.3212c-0.2867,-0.4597 -0.4944,-0.9655 -0.6133,-1.4941c-0.0252,-0.1106 -0.0873,-0.2093 -0.176,-0.2799c-0.0887,-0.0706 -0.1988,-0.109 -0.3122,-0.1088l-0.8223,0l0,-1.3652l0.8203,0c0.1134,0.0001 0.2235,-0.0382 0.3122,-0.1089c0.0888,-0.0706 0.1508,-0.1693 0.1761,-0.2798c0.1203,-0.5282 0.3272,-1.0314 0.6152,-1.4902c0.0604,-0.0958 0.0864,-0.2091 0.074,-0.3216c-0.0124,-0.1124 -0.0626,-0.2173 -0.1423,-0.2976l-0.5801,-0.5801l0.9648,-0.9629l0.5762,0.5762c0.08,0.0801 0.1848,0.1306 0.2973,0.1434c0.1125,0.0128 0.2259,-0.013 0.3218,-0.0731c0.4598,-0.2868 0.9636,-0.4945 1.4922,-0.6133c0.1109,-0.0248 0.2101,-0.0867 0.2811,-0.1755c0.071,-0.0888 0.1096,-0.1991 0.1096,-0.3127l0,-0.8223zm-16.86332,2c-0.13261,0 -0.25978,0.0527 -0.35354,0.1465c-0.09377,0.0937 -0.14645,0.2209 -0.14646,0.3535l0,1.4023c-0.5337,0.1524 -1.04645,0.3623 -1.5332,0.6289l-0.98633,-0.9863c-0.09377,-0.0937 -0.22093,-0.1464 -0.35352,-0.1464c-0.13258,0 -0.25974,0.0527 -0.35351,0.1464l-2.1836,2.1856c-0.09373,0.0937 -0.14639,0.2209 -0.14639,0.3535c0,0.1326 0.05266,0.2597 0.14639,0.3535l0.98828,0.9883c-0.26781,0.4858 -0.48104,0.9963 -0.63476,1.5293l-1.39844,0c-0.1326,0 -0.25977,0.0527 -0.35354,0.1464c-0.09376,0.0938 -0.14645,0.221 -0.14646,0.3536l0,3.0918c0.00001,0.1326 0.0527,0.2597 0.14646,0.3535c0.09377,0.0938 0.22094,0.1465 0.35354,0.1465l1.40234,0c0.15219,0.533 0.36073,1.0449 0.62696,1.5312l-0.98438,0.9864c-0.09373,0.0937 -0.14639,0.2209 -0.14639,0.3535c0,0.1326 0.05266,0.2597 0.14639,0.3535l2.1836,2.1855c0.09377,0.0938 0.22093,0.1464 0.35351,0.1464c0.13259,0 0.25975,-0.0526 0.35352,-0.1464l0.99023,-0.9882c0.48563,0.2675 0.99651,0.4791 1.5293,0.6328l0,1.3984c0.00001,0.1326 0.05269,0.2598 0.14646,0.3535c0.09376,0.0938 0.22093,0.1465 0.35354,0.1465l3.08982,0c0.1326,0 0.2598,-0.0527 0.3536,-0.1465c0.0937,-0.0937 0.1464,-0.2209 0.1464,-0.3535l0,-1.4004c0.5337,-0.1523 1.0465,-0.3622 1.5332,-0.6289l0.9864,0.9863c0.0937,0.0938 0.2209,0.1464 0.3535,0.1464c0.1326,0 0.2597,-0.0526 0.3535,-0.1464l2.1836,-2.1855c0.0937,-0.0938 0.1464,-0.2209 0.1464,-0.3535c0,-0.1326 -0.0527,-0.2598 -0.1464,-0.3535l-0.9883,-0.9883c0.2678,-0.4858 0.481,-0.9963 0.6348,-1.5293l1.3984,0c0.1326,0 0.2598,-0.0527 0.3535,-0.1465c0.0938,-0.0938 0.1465,-0.2209 0.1465,-0.3535l0,-3.0918c0,-0.1326 -0.0527,-0.2598 -0.1465,-0.3536c-0.0937,-0.0937 -0.2209,-0.1464 -0.3535,-0.1464l-1.4023,0c-0.1522,-0.533 -0.3608,-1.0451 -0.627,-1.5313l0.9844,-0.9863c0.0937,-0.0938 0.1464,-0.2209 0.1464,-0.3535c0,-0.1326 -0.0527,-0.2598 -0.1464,-0.3535l-2.1836,-2.1856c-0.0938,-0.0937 -0.2209,-0.1464 -0.3535,-0.1464c-0.1326,0 -0.2598,0.0527 -0.3535,0.1464l-0.9903,0.9883c-0.4856,-0.2676 -0.9965,-0.4791 -1.5293,-0.6328l0,-1.4004c0,-0.1326 -0.0527,-0.2598 -0.1464,-0.3535c-0.0938,-0.0938 -0.221,-0.1465 -0.3536,-0.1465l-3.08982,0zm17.54492,0.1387c-2.1271,0 -3.8613,1.7343 -3.8613,3.8613c0,2.1271 1.7342,3.8633 3.8613,3.8633c2.1271,0 3.8613,-1.7362 3.8613,-3.8633c0,-2.127 -1.7342,-3.8613 -3.8613,-3.8613zm-17.04492,0.8613l2.08982,0l0,1.2266c-0.0002,0.1134 0.0382,0.2235 0.1088,0.3122c0.0707,0.0887 0.1693,0.1508 0.2799,0.176c0.7075,0.1612 1.3834,0.4404 1.998,0.8262c0.096,0.0601 0.2094,0.0859 0.3219,0.0731c0.1125,-0.0128 0.2173,-0.0633 0.2973,-0.1434l0.8672,-0.8652l1.4765,1.4785l-0.8613,0.8633c-0.0799,0.0796 -0.1305,0.1839 -0.1436,0.296c-0.0132,0.112 0.012,0.2252 0.0713,0.3212c0.3842,0.6158 0.6631,1.2918 0.8223,2c0.0248,0.1105 0.0864,0.2094 0.1748,0.2804c0.0884,0.071 0.1982,0.1098 0.3115,0.1102l1.2305,0l0,2.0918l-1.2266,0c-0.1134,-0.0002 -0.2235,0.0382 -0.3122,0.1088c-0.0887,0.0706 -0.1508,0.1693 -0.176,0.2798c-0.1613,0.7075 -0.4404,1.3835 -0.8262,1.9981c-0.0601,0.0959 -0.0859,0.2094 -0.0731,0.3219c0.0128,0.1124 0.0633,0.2172 0.1434,0.2972l0.8652,0.8653l-1.4765,1.4785l-0.8633,-0.8633c-0.08,-0.0801 -0.1848,-0.1306 -0.2973,-0.1434c-0.1125,-0.0128 -0.2259,0.013 -0.3219,0.0731c-0.6158,0.3841 -1.2918,0.6611 -2,0.8203c-0.1109,0.0249 -0.21,0.0868 -0.281,0.1756c-0.071,0.0887 -0.1097,0.199 -0.1096,0.3127l0,1.2285l-2.08982,0l0,-1.2266c-0.00026,-0.113 -0.03884,-0.2227 -0.10942,-0.311c-0.07059,-0.0883 -0.16903,-0.1501 -0.27925,-0.1753c-0.70755,-0.1612 -1.38343,-0.4404 -1.99805,-0.8262c-0.09571,-0.0603 -0.20906,-0.0864 -0.32151,-0.074c-0.11246,0.0125 -0.21738,0.0626 -0.29763,0.1424l-0.86719,0.8672l-1.47656,-1.4785l0.86133,-0.8633c0.0799,-0.0797 0.13052,-0.184 0.14364,-0.296c0.01312,-0.1121 -0.01204,-0.2253 -0.07138,-0.3212c-0.38413,-0.6158 -0.66307,-1.2918 -0.82226,-2c-0.0248,-0.1106 -0.08643,-0.2095 -0.17479,-0.2804c-0.08836,-0.071 -0.19821,-0.1099 -0.31154,-0.1102l-1.23047,0l0,-2.0918l1.22656,0c0.1134,0.0002 0.2235,-0.0382 0.31222,-0.1088c0.08872,-0.0707 0.15081,-0.1693 0.17606,-0.2799c0.16123,-0.7075 0.44037,-1.3834 0.82618,-1.998c0.06008,-0.096 0.08584,-0.2094 0.07307,-0.3219c-0.01278,-0.1125 -0.06332,-0.2173 -0.14339,-0.2973l-0.86523,-0.8652l1.47656,-1.4785l0.86328,0.8633c0.08001,0.08 0.18482,0.1306 0.29728,0.1433c0.11247,0.0128 0.22594,-0.013 0.32186,-0.073c0.61585,-0.3842 1.29184,-0.6612 2,-0.8203c0.11092,-0.0249 0.21004,-0.0868 0.28105,-0.1756c0.07101,-0.0888 0.10966,-0.1991 0.10958,-0.3127l0,-1.2305zm17.04492,0.1387c1.5866,0 2.8613,1.2747 2.8613,2.8613c0,1.5866 -1.2747,2.8633 -2.8613,2.8633c-1.5866,0 -2.8613,-1.2767 -2.8613,-2.8633c0,-1.5866 1.2747,-2.8613 2.8613,-2.8613zm-16,2.9648c-2.69839,0 -4.89651,2.1981 -4.89648,4.8965c0.00003,2.6984 2.19813,4.8965 4.89648,4.8965c2.6983,0 4.8965,-2.1981 4.8965,-4.8965c0,-2.6984 -2.1981,-4.8965 -4.8965,-4.8965zm0,1c2.1579,0 3.8965,1.7386 3.8965,3.8965c0,2.1579 -1.7386,3.8965 -3.8965,3.8965c-2.15791,0 -3.89646,-1.7386 -3.89648,-3.8965c-0.00003,-2.1579 1.73854,-3.8965 3.89648,-3.8965z"/>
  </g>
 </g>
</svg>