<svg width="32" height="32" viewBox="0 0 32 32" fill="none" xmlns="http://www.w3.org/2000/svg">
<g clip-path="url(#clip0_802_38)">
<path d="M14 1C13.8674 1.00001 13.7402 1.0527 13.6465 1.14646C13.5527 1.24023 13.5 1.3674 13.5 1.5V2.29297C13.2342 2.37697 12.9786 2.48238 12.7305 2.60938L12.1719 2.05078C12.0781 1.95705 11.9509 1.90439 11.8184 1.90439C11.6858 1.90439 11.5586 1.95705 11.4648 2.05078L10.0508 3.46484C9.95705 3.55862 9.90439 3.68577 9.90439 3.81836C9.90439 3.95095 9.95705 4.0781 10.0508 4.17188L10.6094 4.73047C10.4817 4.97807 10.3757 5.2347 10.291 5.5H9.5C9.3674 5.50001 9.24023 5.5527 9.14646 5.64646C9.0527 5.74023 9.00001 5.8674 9 6V8C9.00001 8.1326 9.0527 8.25977 9.14646 8.35354C9.24023 8.4473 9.3674 8.49999 9.5 8.5H10.291C10.375 8.7663 10.4802 9.02298 10.6074 9.27148L10.0508 9.82812C9.95705 9.9219 9.90439 10.0491 9.90439 10.1816C9.90439 10.3142 9.95705 10.4414 10.0508 10.5352L11.4648 11.9492C11.5586 12.043 11.6858 12.0956 11.8184 12.0956C11.9509 12.0956 12.0781 12.043 12.1719 11.9492L12.7305 11.3906C12.9786 11.5185 13.2341 11.6261 13.5 11.7109V12.5C13.5 12.6326 13.5527 12.7598 13.6465 12.8535C13.7402 12.9473 13.8674 13 14 13H16C16.1326 13 16.2598 12.9473 16.3535 12.8535C16.4473 12.7598 16.5 12.6326 16.5 12.5V11.709C16.7664 11.625 17.0229 11.52 17.2715 11.3926L17.8281 11.9492C17.9219 12.043 18.0491 12.0956 18.1816 12.0956C18.3142 12.0956 18.4414 12.043 18.5352 11.9492L19.9492 10.5352C20.043 10.4414 20.0956 10.3142 20.0956 10.1816C20.0956 10.0491 20.043 9.9219 19.9492 9.82812L19.3926 9.27148C19.5205 9.02338 19.6262 8.766 19.7109 8.5H20.5C20.6326 8.49999 20.7598 8.4473 20.8535 8.35354C20.9473 8.25977 21 8.1326 21 8V6C21 5.8674 20.9473 5.74023 20.8535 5.64646C20.7598 5.5527 20.6326 5.50001 20.5 5.5H19.709C19.6249 5.2338 19.5199 4.97702 19.3926 4.72852L19.9492 4.17188C20.043 4.0781 20.0956 3.95095 20.0956 3.81836C20.0956 3.68577 20.043 3.55862 19.9492 3.46484L18.5352 2.05078C18.4414 1.95705 18.3142 1.90439 18.1816 1.90439C18.0491 1.90439 17.9219 1.95705 17.8281 2.05078L17.2695 2.60938C17.0216 2.48168 16.7657 2.37582 16.5 2.29102V1.5C16.5 1.3674 16.4473 1.24023 16.3535 1.14646C16.2598 1.0527 16.1326 1.00001 16 1H14ZM14.5 2H15.5V2.61719C15.4998 2.73059 15.5382 2.84068 15.6088 2.9294C15.6794 3.01813 15.7781 3.08021 15.8887 3.10547C16.3271 3.20547 16.7461 3.37809 17.127 3.61719C17.2229 3.67727 17.3363 3.70303 17.4488 3.69026C17.5613 3.67749 17.6661 3.62694 17.7461 3.54688L18.1816 3.11133L18.8887 3.81836L18.4551 4.25195C18.375 4.33196 18.3245 4.43677 18.3117 4.54923C18.2989 4.6617 18.3247 4.77517 18.3848 4.87109C18.6228 5.25279 18.7939 5.67243 18.8926 6.11133C18.9178 6.22188 18.9799 6.32056 19.0686 6.39119C19.1574 6.46181 19.2675 6.50018 19.3809 6.5H20V7.5H19.3828C19.2691 7.49992 19.1588 7.53857 19.0701 7.60958C18.9813 7.68058 18.9194 7.77971 18.8945 7.89062C18.7946 8.32902 18.6219 8.74605 18.3828 9.12695C18.3227 9.22288 18.297 9.33635 18.3097 9.44881C18.3225 9.56128 18.3731 9.66608 18.4531 9.74609L18.8887 10.1816L18.1816 10.8887L17.748 10.4551C17.6682 10.3755 17.5637 10.3252 17.4517 10.3125C17.3397 10.2997 17.2266 10.3252 17.1309 10.3848C16.7492 10.6229 16.3295 10.7958 15.8906 10.8945C15.78 10.9193 15.6812 10.981 15.6102 11.0693C15.5392 11.1577 15.5004 11.2675 15.5 11.3809V12H14.5V11.3828C14.4997 11.2697 14.4612 11.1601 14.3906 11.0718C14.32 10.9835 14.2216 10.9217 14.1113 10.8965C13.6729 10.7965 13.2539 10.6239 12.873 10.3848C12.7775 10.3242 12.6643 10.2978 12.5519 10.3098C12.4394 10.3219 12.3344 10.3717 12.2539 10.4512L11.8184 10.8867L11.1113 10.1797L11.5449 9.74609C11.6245 9.66621 11.6748 9.56178 11.6875 9.44974C11.7003 9.3377 11.6748 9.22464 11.6152 9.12891C11.3772 8.74721 11.2061 8.32747 11.1074 7.88867C11.0825 7.77776 11.0206 7.67863 10.9319 7.60762C10.8431 7.53662 10.7328 7.49797 10.6191 7.49805H10V6.49805H10.6172C10.7306 6.49823 10.8407 6.45986 10.9294 6.38923C11.0181 6.31861 11.0802 6.21993 11.1055 6.10938C11.2054 5.67088 11.3781 5.25395 11.6172 4.87305C11.6778 4.77693 11.7038 4.66305 11.691 4.55016C11.6783 4.43727 11.6274 4.33209 11.5469 4.25195L11.1113 3.81641L11.8184 3.10938L12.252 3.54297C12.3316 3.62287 12.4359 3.67349 12.548 3.68661C12.66 3.69973 12.7732 3.67457 12.8691 3.61523C13.2508 3.37723 13.6705 3.20407 14.1094 3.10547C14.22 3.08067 14.3188 3.01904 14.3898 2.93068C14.4608 2.84232 14.4996 2.73247 14.5 2.61914V2ZM15 3.65625C13.1586 3.65625 11.6543 5.1587 11.6543 7C11.6543 8.8414 13.1586 10.3457 15 10.3457C16.8414 10.3457 18.3457 8.8414 18.3457 7C18.3457 5.1587 16.8414 3.65625 15 3.65625ZM15 4.65625C16.3009 4.65625 17.3457 5.6991 17.3457 7C17.3457 8.301 16.3009 9.3457 15 9.3457C13.6991 9.3457 12.6543 8.301 12.6543 7C12.6543 5.6991 13.6991 4.65625 15 4.65625ZM23.8184 11C23.6858 11 23.5586 11.0527 23.4648 11.1465C23.3711 11.2402 23.3184 11.3674 23.3184 11.5V12.4961C22.9632 12.6037 22.6212 12.7429 22.293 12.916L21.5938 12.2168C21.5 12.1231 21.3728 12.0704 21.2402 12.0704C21.1076 12.0704 20.9805 12.1231 20.8867 12.2168L19.2148 13.8867C19.1211 13.9805 19.0685 14.1076 19.0685 14.2402C19.0685 14.3728 19.1211 14.5 19.2148 14.5938L19.918 15.2969C19.7443 15.6243 19.6026 15.964 19.4941 16.3184H18.5C18.3674 16.3184 18.2402 16.3711 18.1465 16.4648C18.0527 16.5586 18 16.6858 18 16.8184V19.1836C18 19.3162 18.0527 19.4434 18.1465 19.5371C18.2402 19.6309 18.3674 19.6836 18.5 19.6836H19.4941C19.6015 20.0382 19.7413 20.3792 19.9141 20.707L19.2148 21.4082C19.1211 21.502 19.0685 21.6291 19.0685 21.7617C19.0685 21.8943 19.1211 22.0215 19.2148 22.1152L20.8867 23.7852C20.9805 23.8789 21.1076 23.9315 21.2402 23.9315C21.3728 23.9315 21.5 23.8789 21.5938 23.7852L22.2949 23.084C22.6226 23.2579 22.9636 23.3994 23.3184 23.5078V24.5C23.3184 24.6326 23.3711 24.7598 23.4648 24.8535C23.5586 24.9473 23.6858 25 23.8184 25H26.1816C26.3142 25 26.4414 24.9473 26.5352 24.8535C26.6289 24.7598 26.6816 24.6326 26.6816 24.5V23.5059C27.0368 23.3983 27.3788 23.259 27.707 23.0859L28.4062 23.7852C28.5 23.8789 28.6272 23.9315 28.7598 23.9315C28.8924 23.9315 29.0195 23.8789 29.1133 23.7852L30.7852 22.1152C30.8789 22.0215 30.9315 21.8943 30.9315 21.7617C30.9315 21.6291 30.8789 21.502 30.7852 21.4082L30.082 20.7051C30.2556 20.3781 30.3975 20.0376 30.5059 19.6836H31.5C31.6326 19.6836 31.7598 19.6309 31.8535 19.5371C31.9473 19.4434 32 19.3162 32 19.1836V16.8184C32 16.6858 31.9473 16.5586 31.8535 16.4648C31.7598 16.3711 31.6326 16.3184 31.5 16.3184H30.5059C30.3985 15.9638 30.2587 15.6227 30.0859 15.2949L30.7852 14.5938C30.8789 14.5 30.9315 14.3728 30.9315 14.2402C30.9315 14.1076 30.8789 13.9805 30.7852 13.8867L29.1133 12.2168C29.0195 12.1231 28.8924 12.0704 28.7598 12.0704C28.6272 12.0704 28.5 12.1231 28.4062 12.2168L27.7051 12.918C27.3774 12.7441 27.0364 12.6026 26.6816 12.4941V11.5C26.6816 11.3674 26.6289 11.2402 26.5352 11.1465C26.4414 11.0527 26.3142 11 26.1816 11H23.8184ZM24.3184 12H25.6816V12.8203C25.6815 12.9337 25.7198 13.0438 25.7905 13.1325C25.8611 13.2213 25.9598 13.2833 26.0703 13.3086C26.5985 13.429 27.1037 13.6378 27.5625 13.9258C27.6584 13.9859 27.7719 14.0116 27.8844 13.9989C27.9968 13.9861 28.1016 13.9355 28.1816 13.8555L28.7598 13.2773L29.7246 14.2402L29.1484 14.8184C29.0685 14.898 29.0179 15.0023 29.0048 15.1144C28.9917 15.2264 29.0168 15.3396 29.0762 15.4355C29.3629 15.8952 29.5706 16.4011 29.6895 16.9297C29.7147 17.0402 29.7768 17.1389 29.8655 17.2095C29.9542 17.2802 30.0643 17.3185 30.1777 17.3184H31V18.6836H30.1797C30.0663 18.6834 29.9562 18.7218 29.8675 18.7924C29.7787 18.863 29.7167 18.9617 29.6914 19.0723C29.5711 19.6005 29.3642 20.1037 29.0762 20.5625C29.0158 20.6582 28.9898 20.7716 29.0022 20.884C29.0146 20.9965 29.0648 21.1014 29.1445 21.1816L29.7246 21.7617L28.7598 22.7246L28.1836 22.1484C28.1036 22.0684 27.9988 22.0178 27.8863 22.0051C27.7738 21.9923 27.6604 22.018 27.5645 22.0781C27.1047 22.3648 26.6009 22.5726 26.0723 22.6914C25.9617 22.7162 25.8628 22.7778 25.7918 22.8662C25.7209 22.9546 25.682 23.0644 25.6816 23.1777V24H24.3184V23.1797C24.3181 23.0666 24.2795 22.957 24.2089 22.8687C24.1383 22.7803 24.0399 22.7185 23.9297 22.6934C23.4015 22.573 22.8963 22.3642 22.4375 22.0762C22.3416 22.0161 22.2281 21.9903 22.1156 22.0031C22.0032 22.0159 21.8984 22.0664 21.8184 22.1465L21.2402 22.7246L20.2754 21.7617L20.8516 21.1836C20.9315 21.104 20.9821 20.9996 20.9952 20.8876C21.0083 20.7755 20.9832 20.6624 20.9238 20.5664C20.6371 20.1067 20.4294 19.6009 20.3105 19.0723C20.2853 18.9617 20.2232 18.863 20.1345 18.7924C20.0458 18.7218 19.9357 18.6834 19.8223 18.6836H19V17.3184H19.8203C19.9337 17.3185 20.0438 17.2802 20.1325 17.2095C20.2213 17.1389 20.2833 17.0402 20.3086 16.9297C20.4289 16.4015 20.6358 15.8983 20.9238 15.4395C20.9842 15.3437 21.0102 15.2304 20.9978 15.1179C20.9854 15.0055 20.9352 14.9006 20.8555 14.8203L20.2754 14.2402L21.2402 13.2773L21.8164 13.8535C21.8964 13.9336 22.0012 13.9841 22.1137 13.9969C22.2262 14.0097 22.3396 13.9839 22.4355 13.9238C22.8953 13.637 23.3991 13.4293 23.9277 13.3105C24.0386 13.2857 24.1378 13.2238 24.2088 13.135C24.2798 13.0462 24.3184 12.9359 24.3184 12.8223V12ZM7.45508 14C7.32247 14 7.1953 14.0527 7.10154 14.1465C7.00777 14.2402 6.95509 14.3674 6.95508 14.5V15.9023C6.42138 16.0547 5.90863 16.2646 5.42188 16.5312L4.43555 15.5449C4.34178 15.4512 4.21462 15.3985 4.08203 15.3985C3.94945 15.3985 3.82229 15.4512 3.72852 15.5449L1.54492 17.7305C1.45119 17.8242 1.39853 17.9514 1.39853 18.084C1.39853 18.2166 1.45119 18.3437 1.54492 18.4375L2.5332 19.4258C2.26539 19.9116 2.05216 20.4221 1.89844 20.9551H0.5C0.367396 20.9551 0.240227 21.0078 0.146461 21.1015C0.0526959 21.1953 1.32346e-05 21.3225 0 21.4551L0 24.5469C1.32346e-05 24.6795 0.0526959 24.8066 0.146461 24.9004C0.240227 24.9942 0.367396 25.0469 0.5 25.0469H1.90234C2.05453 25.5799 2.26307 26.0918 2.5293 26.5781L1.54492 27.5645C1.45119 27.6582 1.39853 27.7854 1.39853 27.918C1.39853 28.0506 1.45119 28.1777 1.54492 28.2715L3.72852 30.457C3.82229 30.5508 3.94945 30.6034 4.08203 30.6034C4.21462 30.6034 4.34178 30.5508 4.43555 30.457L5.42578 29.4688C5.91141 29.7363 6.42229 29.9479 6.95508 30.1016V31.5C6.95509 31.6326 7.00777 31.7598 7.10154 31.8535C7.1953 31.9473 7.32247 32 7.45508 32H10.5449C10.6775 32 10.8047 31.9473 10.8985 31.8535C10.9922 31.7598 11.0449 31.6326 11.0449 31.5V30.0996C11.5786 29.9473 12.0914 29.7374 12.5781 29.4707L13.5645 30.457C13.6582 30.5508 13.7854 30.6034 13.918 30.6034C14.0506 30.6034 14.1777 30.5508 14.2715 30.457L16.4551 28.2715C16.5488 28.1777 16.6015 28.0506 16.6015 27.918C16.6015 27.7854 16.5488 27.6582 16.4551 27.5645L15.4668 26.5762C15.7346 26.0904 15.9478 25.5799 16.1016 25.0469H17.5C17.6326 25.0469 17.7598 24.9942 17.8535 24.9004C17.9473 24.8066 18 24.6795 18 24.5469V21.4551C18 21.3225 17.9473 21.1953 17.8535 21.1015C17.7598 21.0078 17.6326 20.9551 17.5 20.9551H16.0977C15.9455 20.4221 15.7369 19.91 15.4707 19.4238L16.4551 18.4375C16.5488 18.3437 16.6015 18.2166 16.6015 18.084C16.6015 17.9514 16.5488 17.8242 16.4551 17.7305L14.2715 15.5449C14.1777 15.4512 14.0506 15.3985 13.918 15.3985C13.7854 15.3985 13.6582 15.4512 13.5645 15.5449L12.5742 16.5332C12.0886 16.2656 11.5777 16.0541 11.0449 15.9004V14.5C11.0449 14.3674 10.9922 14.2402 10.8985 14.1465C10.8047 14.0527 10.6775 14 10.5449 14H7.45508ZM25 14.1387C22.8729 14.1387 21.1387 15.873 21.1387 18C21.1387 20.1271 22.8729 21.8633 25 21.8633C27.1271 21.8633 28.8613 20.1271 28.8613 18C28.8613 15.873 27.1271 14.1387 25 14.1387ZM7.95508 15H10.0449V16.2266C10.0447 16.34 10.0831 16.4501 10.1537 16.5388C10.2244 16.6275 10.323 16.6896 10.4336 16.7148C11.1411 16.876 11.817 17.1552 12.4316 17.541C12.5276 17.6011 12.641 17.6269 12.7535 17.6141C12.866 17.6013 12.9708 17.5508 13.0508 17.4707L13.918 16.6055L15.3945 18.084L14.5332 18.9473C14.4533 19.0269 14.4027 19.1312 14.3896 19.2433C14.3764 19.3553 14.4016 19.4685 14.4609 19.5645C14.8451 20.1803 15.124 20.8563 15.2832 21.5645C15.308 21.675 15.3696 21.7739 15.458 21.8449C15.5464 21.9159 15.6562 21.9547 15.7695 21.9551H17V24.0469H15.7734C15.66 24.0467 15.5499 24.0851 15.4612 24.1557C15.3725 24.2263 15.3104 24.325 15.2852 24.4355C15.1239 25.143 14.8448 25.819 14.459 26.4336C14.3989 26.5295 14.3731 26.643 14.3859 26.7555C14.3987 26.8679 14.4492 26.9727 14.5293 27.0527L15.3945 27.918L13.918 29.3965L13.0547 28.5332C12.9747 28.4531 12.8699 28.4026 12.7574 28.3898C12.6449 28.377 12.5315 28.4028 12.4355 28.4629C11.8197 28.847 11.1437 29.124 10.4355 29.2832C10.3246 29.3081 10.2255 29.37 10.1545 29.4588C10.0835 29.5475 10.0448 29.6578 10.0449 29.7715V31H7.95508V29.7734C7.95482 29.6604 7.91624 29.5507 7.84566 29.4624C7.77507 29.3741 7.67663 29.3123 7.56641 29.2871C6.85886 29.1259 6.18298 28.8467 5.56836 28.4609C5.47265 28.4006 5.3593 28.3745 5.24685 28.3869C5.13439 28.3994 5.02947 28.4495 4.94922 28.5293L4.08203 29.3965L2.60547 27.918L3.4668 27.0547C3.5467 26.975 3.59732 26.8707 3.61044 26.7587C3.62356 26.6466 3.5984 26.5334 3.53906 26.4375C3.15493 25.8217 2.87599 25.1457 2.7168 24.4375C2.692 24.3269 2.63037 24.228 2.54201 24.1571C2.45365 24.0861 2.3438 24.0472 2.23047 24.0469H1V21.9551H2.22656C2.33996 21.9553 2.45006 21.9169 2.53878 21.8463C2.6275 21.7756 2.68959 21.677 2.71484 21.5664C2.87607 20.8589 3.15521 20.183 3.54102 19.5684C3.6011 19.4724 3.62686 19.359 3.61409 19.2465C3.60131 19.134 3.55077 19.0292 3.4707 18.9492L2.60547 18.084L4.08203 16.6055L4.94531 17.4688C5.02532 17.5488 5.13013 17.5994 5.24259 17.6121C5.35506 17.6249 5.46853 17.5991 5.56445 17.5391C6.1803 17.1549 6.85629 16.8779 7.56445 16.7188C7.67537 16.6939 7.77449 16.632 7.8455 16.5432C7.91651 16.4544 7.95516 16.3441 7.95508 16.2305V15ZM25 15.1387C26.5866 15.1387 27.8613 16.4134 27.8613 18C27.8613 19.5866 26.5866 20.8633 25 20.8633C23.4134 20.8633 22.1387 19.5866 22.1387 18C22.1387 16.4134 23.4134 15.1387 25 15.1387ZM9 18.1035C6.30161 18.1035 4.10349 20.3016 4.10352 23C4.10355 25.6984 6.30165 27.8965 9 27.8965C11.6983 27.8965 13.8965 25.6984 13.8965 23C13.8965 20.3016 11.6984 18.1035 9 18.1035ZM9 19.1035C11.1579 19.1035 12.8965 20.8421 12.8965 23C12.8965 25.1579 11.1579 26.8965 9 26.8965C6.84209 26.8965 5.10354 25.1579 5.10352 23C5.10349 20.8421 6.84206 19.1035 9 19.1035Z" fill="#56BBF1"/>
</g>
<defs>
<clipPath id="clip0_802_38">
<rect width="32" height="32" fill="white"/>
</clipPath>
</defs>
</svg>
