<?xml version="1.0" standalone="no"?>
<!DOCTYPE svg PUBLIC "-//W3C//DTD SVG 20010904//EN"
 "http://www.w3.org/TR/2001/REC-SVG-20010904/DTD/svg10.dtd">
<svg version="1.0" xmlns="http://www.w3.org/2000/svg"
 width="700.000000pt" height="700.000000pt" viewBox="0 0 700.000000 700.000000"
 preserveAspectRatio="xMidYMid meet">
<metadata>
Created by potrace 1.14, written by Peter Selinger 2001-2017
</metadata>
<g transform="translate(0.000000,700.000000) scale(0.100000,-0.100000)"
fill="#000000" stroke="none">
<path d="M3205 6780 c-245 -7 -256 -15 -252 -191 l2 -86 -85 -36 -84 -36 -77
74 c-74 72 -78 75 -125 75 l-48 0 -179 -179 c-233 -232 -234 -237 -102 -371
l65 -65 -34 -78 c-19 -43 -37 -81 -40 -84 -3 -4 -50 -7 -104 -8 -172 -2 -172
-3 -172 -334 l0 -251 29 -32 c29 -33 30 -33 141 -38 l111 -5 33 -82 34 -82
-62 -63 c-74 -74 -86 -94 -86 -144 0 -35 11 -49 173 -212 94 -95 180 -178 190
-183 56 -31 100 -14 186 74 l63 65 65 -29 c36 -16 71 -29 78 -29 23 0 28 -19
29 -119 3 -172 7 -175 310 -176 127 -1 245 2 261 7 17 4 42 21 58 38 26 29 27
35 27 134 l0 104 34 12 c19 6 56 22 83 35 l48 23 76 -74 c42 -41 84 -75 93
-75 9 -1 22 -2 29 -3 6 -1 24 2 39 7 35 11 378 353 379 378 1 11 2 25 3 32 5
30 -19 68 -84 132 l-69 68 23 46 c13 25 29 63 35 84 l13 37 96 0 c105 0 133 9
165 52 19 25 20 43 21 269 1 164 -3 251 -11 270 -21 50 -56 64 -163 65 -100 1
-120 6 -120 29 0 7 -13 42 -29 78 l-29 65 65 63 c131 129 128 140 -105 372
-98 97 -185 177 -193 178 -59 5 -88 -9 -145 -65 -81 -81 -93 -89 -106 -79 -7
6 -42 22 -78 36 l-65 26 -5 103 c-7 151 -22 169 -143 177 -45 4 -163 4 -262 1z
m177 -219 c3 -1 8 -41 10 -91 3 -80 6 -92 28 -115 15 -15 54 -33 95 -45 39
-11 113 -41 165 -67 52 -26 102 -48 110 -50 35 -7 69 11 125 67 l60 59 77 -76
77 -77 -60 -63 c-78 -84 -79 -101 -14 -231 24 -48 54 -122 66 -165 16 -57 30
-85 51 -103 31 -25 34 -26 138 -26 l65 0 0 -107 0 -106 -85 -5 c-87 -5 -123
-17 -139 -48 -5 -9 -23 -60 -41 -112 -17 -52 -46 -122 -65 -155 -55 -100 -52
-129 25 -210 l61 -62 -77 -77 -76 -77 -63 60 c-35 34 -72 61 -82 62 -43 3 -68
-5 -138 -41 -40 -21 -104 -48 -142 -60 -114 -37 -125 -42 -144 -74 -14 -24
-19 -50 -19 -112 l0 -80 -102 2 c-57 1 -106 2 -110 3 -5 0 -8 39 -8 86 0 79
-2 87 -27 114 -19 20 -51 36 -103 51 -79 23 -144 51 -200 85 -77 48 -122 39
-200 -40 l-54 -55 -78 77 -78 77 62 63 c78 79 81 104 21 219 -23 43 -53 118
-68 166 -37 120 -52 132 -166 136 -49 2 -89 8 -90 13 0 5 -1 29 -1 54 0 25 1
70 1 100 l1 55 83 0 c61 0 89 4 107 17 34 23 37 27 66 123 14 47 46 124 71
172 57 109 54 128 -28 213 l-58 61 77 77 78 77 49 -51 c88 -90 118 -93 236
-30 41 22 112 51 159 65 96 29 100 31 123 66 13 18 17 46 17 107 0 77 1 82 23
85 18 2 167 2 189 -1z"/>
<path d="M3132 6184 c-215 -46 -404 -190 -502 -383 -99 -198 -104 -448 -12
-638 82 -171 219 -303 382 -369 290 -118 613 -45 821 184 118 130 179 280 187
455 5 123 -7 198 -48 304 -68 176 -200 314 -382 397 -132 61 -302 80 -446 50z
m249 -214 c130 -24 257 -109 331 -224 99 -153 107 -350 21 -521 -33 -64 -144
-175 -208 -208 -209 -105 -446 -69 -605 92 -100 101 -150 219 -150 356 0 139
49 261 145 359 124 126 289 178 466 146z"/>
<path d="M5189 4589 c-17 -4 -43 -19 -58 -33 -25 -25 -26 -33 -31 -157 l-5
-130 -90 -38 c-49 -20 -98 -41 -108 -47 -15 -9 -32 4 -106 77 -92 92 -129 111
-181 91 -33 -13 -419 -398 -432 -431 -19 -51 -2 -84 90 -177 l89 -89 -29 -60
c-15 -33 -36 -84 -45 -112 l-17 -53 -129 0 -129 0 -34 -34 c-24 -24 -34 -43
-35 -67 0 -19 -1 -152 -1 -297 0 -343 -5 -335 200 -337 l123 -2 45 -112 46
-113 -85 -87 c-87 -89 -104 -120 -92 -168 4 -18 81 -103 209 -231 263 -264
258 -263 407 -116 l86 86 49 -25 c27 -13 77 -35 112 -47 l62 -23 0 -119 c0
-132 11 -167 58 -192 36 -19 558 -23 609 -6 56 20 67 50 69 186 0 67 4 126 7
131 4 6 20 13 36 16 16 3 63 22 105 41 l76 36 92 -90 c90 -89 92 -90 141 -90
l49 0 209 209 c132 132 209 216 210 230 1 11 2 28 2 36 0 8 -1 22 -2 30 0 9
-41 56 -91 106 l-89 91 23 47 c13 25 34 74 46 109 15 40 28 62 39 63 9 0 66 2
126 3 92 1 115 5 137 21 47 35 49 51 46 364 l-3 293 -35 29 c-34 29 -36 29
-162 29 -96 0 -128 3 -128 13 0 6 -20 58 -44 113 l-43 101 79 79 c104 104 112
118 94 188 -8 32 -406 423 -438 431 -49 12 -80 -5 -169 -92 l-88 -85 -83 35
c-46 19 -93 38 -106 42 -33 10 -38 30 -37 145 2 115 -8 148 -51 177 -23 14
-60 17 -294 17 -148 1 -283 -2 -301 -5z m422 -218 c3 0 6 -38 7 -83 0 -46 1
-95 1 -109 2 -45 50 -82 144 -107 47 -13 134 -48 193 -78 147 -75 156 -74 256
23 l79 77 104 -104 105 -105 -70 -70 c-40 -41 -74 -84 -79 -102 -9 -32 -5 -69
9 -88 24 -32 91 -181 110 -245 45 -156 63 -170 215 -170 l95 0 0 -150 0 -150
-105 1 c-146 1 -162 -11 -199 -151 -9 -36 -44 -119 -77 -186 -74 -151 -74
-155 28 -258 l75 -76 -104 -106 -105 -105 -77 75 c-99 96 -120 101 -208 52
-82 -45 -185 -88 -271 -111 -74 -20 -116 -56 -118 -101 0 -13 -1 -62 -1 -109
l0 -85 -149 0 -149 0 0 103 c0 145 -8 156 -139 197 -56 17 -150 56 -210 86
-137 70 -145 69 -250 -32 l-77 -73 -104 104 -104 104 77 80 c70 72 77 82 77
119 0 27 -10 58 -28 89 -36 62 -85 179 -114 272 -32 102 -44 109 -183 113
l-110 3 0 145 0 145 111 5 c148 7 149 7 194 151 16 52 52 140 81 195 70 136
67 156 -30 253 -39 39 -71 72 -71 75 0 5 168 174 194 195 15 13 22 9 64 -35
118 -123 136 -127 275 -55 52 27 140 64 196 81 141 44 151 57 151 198 l0 107
143 -1 c78 -1 145 -2 148 -3z"/>
<path d="M5330 3895 c-305 -53 -563 -273 -660 -564 -35 -106 -48 -195 -43
-309 9 -215 99 -413 260 -569 41 -40 83 -75 94 -78 10 -4 19 -11 19 -16 0 -5
5 -9 11 -9 6 0 23 -8 37 -18 41 -28 141 -70 208 -87 538 -137 1057 267 1055
820 -1 50 -3 101 -6 115 -2 14 -7 39 -11 55 -35 183 -149 365 -304 488 -182
145 -435 211 -660 172z m300 -229 c51 -14 105 -37 173 -72 41 -22 143 -120
176 -169 45 -67 88 -164 101 -230 24 -115 10 -275 -33 -373 -77 -177 -242
-319 -426 -367 -266 -68 -563 59 -695 299 -57 102 -76 173 -80 294 -11 306
205 571 515 631 62 12 203 5 269 -13z"/>
<path d="M1600 3931 c-67 -27 -81 -60 -79 -189 0 -59 1 -132 0 -163 l-1 -56
-92 -33 c-51 -18 -124 -48 -161 -66 -37 -19 -73 -34 -78 -34 -6 0 -54 44 -107
98 -53 53 -110 107 -126 120 -33 25 -75 28 -114 8 -15 -8 -139 -127 -275 -264
-260 -260 -277 -283 -255 -342 5 -14 61 -78 125 -142 l116 -117 -40 -83 c-22
-46 -53 -119 -68 -163 -16 -44 -30 -82 -32 -84 -2 -3 -77 -6 -166 -7 -89 0
-167 -2 -173 -3 -5 0 -24 -15 -42 -32 l-31 -30 -1 -370 c0 -319 2 -373 15
-400 26 -50 64 -59 243 -59 l158 0 18 -57 c10 -32 40 -107 67 -167 27 -61 47
-111 46 -112 -243 -245 -259 -268 -231 -331 19 -45 514 -532 549 -541 56 -15
76 -3 201 120 l122 119 85 -40 c46 -22 121 -53 166 -68 80 -28 81 -28 81 -63
1 -19 1 -93 2 -165 0 -89 5 -139 15 -157 28 -57 39 -58 433 -58 474 0 444 -16
445 242 1 92 3 169 6 171 2 2 40 16 84 32 44 16 118 46 164 67 l85 39 116
-116 c115 -115 147 -135 200 -127 28 4 521 487 546 534 19 36 18 78 -3 108 -9
13 -63 70 -120 126 -57 56 -103 107 -103 112 0 5 20 52 44 103 24 52 54 124
66 162 l23 67 158 0 c88 0 161 0 164 0 19 -1 67 35 78 58 21 40 21 734 1 777
-25 54 -43 59 -226 60 -92 1 -171 4 -174 8 -4 3 -18 39 -31 79 -14 40 -43 113
-66 161 l-40 88 110 112 c122 124 133 139 133 192 0 35 -15 52 -269 306 -337
337 -308 329 -500 135 -57 -58 -107 -106 -111 -106 -4 0 -45 18 -91 39 -46 22
-117 51 -157 64 -40 13 -76 27 -79 31 -4 3 -7 82 -8 174 0 128 -4 172 -15 190
-31 47 -51 50 -430 50 -195 -1 -362 -3 -370 -7z m597 -341 c0 -69 1 -137 2
-152 2 -49 47 -86 131 -107 100 -25 208 -69 335 -136 133 -70 136 -69 270 65
55 55 104 100 109 100 12 0 316 -305 316 -316 0 -5 -43 -52 -96 -104 -53 -52
-102 -108 -109 -124 -15 -34 -4 -85 27 -128 47 -67 138 -292 162 -405 9 -39
58 -83 94 -84 15 0 83 -2 152 -2 l125 -2 2 -227 2 -228 -147 0 c-207 0 -200 5
-262 -198 -17 -57 -62 -164 -99 -237 -52 -103 -67 -140 -63 -164 3 -23 32 -59
108 -136 57 -58 104 -109 104 -113 0 -4 -71 -78 -158 -165 l-157 -157 -95 96
c-137 137 -157 145 -250 94 -135 -74 -349 -160 -398 -160 -25 0 -79 -36 -93
-61 -7 -15 -12 -75 -12 -170 l0 -148 -106 -3 c-58 -2 -161 -2 -228 0 l-123 3
0 144 c0 198 -5 206 -145 245 -94 26 -207 71 -285 113 -170 93 -169 93 -310
-48 l-106 -106 -162 163 -162 163 108 108 c106 107 107 108 107 155 -1 36 -10
62 -40 112 -50 83 -100 202 -131 310 -45 159 -47 160 -249 160 l-145 0 0 229
0 228 122 -1 c206 -2 232 10 263 130 27 103 79 231 136 334 73 133 71 142 -65
279 l-106 106 158 158 c86 86 161 157 165 157 4 0 47 -39 95 -87 107 -108 113
-112 150 -123 27 -7 48 0 164 58 158 80 168 83 282 116 102 29 133 47 146 82
6 14 10 90 10 169 l0 144 228 -2 227 -2 2 -125z"/>
<path d="M1792 3025 c-174 -32 -332 -100 -468 -203 -526 -397 -570 -1173 -92
-1627 282 -270 683 -364 1051 -249 171 54 315 141 441 268 137 137 234 306
283 494 31 121 39 327 16 449 -77 418 -402 760 -810 854 -27 6 -57 13 -68 15
-51 13 -285 12 -353 -1z m348 -219 c162 -37 340 -135 441 -243 118 -126 205
-297 227 -448 9 -64 9 -248 -1 -299 -64 -340 -333 -616 -662 -680 -16 -4 -41
-9 -55 -12 -37 -7 -188 -7 -240 1 -418 61 -729 417 -732 835 -1 158 27 271
100 410 49 90 74 124 162 210 169 166 372 244 615 236 66 -3 131 -7 145 -10z"/>
</g>
</svg>
