<svg width="13" height="13" viewBox="0 0 13 13" fill="none" xmlns="http://www.w3.org/2000/svg">
<path d="M4.12299 3.55002C4.24059 2.93892 4.40089 2.39012 4.59199 1.92602C4.80269 1.41292 5.04559 1.02022 5.29759 0.761924C5.54819 0.504324 5.78549 0.400024 6.00039 0.400024C6.21529 0.400024 6.45259 0.504324 6.70319 0.761924C6.95519 1.02092 7.19809 1.41292 7.40879 1.92602C7.59989 2.39012 7.76019 2.93892 7.87779 3.55002H4.12299ZM3.94449 1.66002C4.09391 1.28334 4.28829 0.926085 4.52339 0.596024C3.75416 0.80721 3.03877 1.1799 2.42488 1.68926C1.81099 2.19863 1.31269 2.83297 0.963194 3.55002H3.41109C3.53849 2.84512 3.71979 2.20462 3.94449 1.66002ZM8.05629 1.66002C7.90682 1.28359 7.71244 0.926573 7.47739 0.596724C8.24656 0.807832 8.96191 1.18042 9.5758 1.68966C10.1897 2.19889 10.688 2.8331 11.0376 3.55002H8.58969C8.46229 2.84512 8.28099 2.20462 8.05629 1.66002ZM8.69539 4.25002H11.3218C11.4856 4.74842 11.5808 5.27763 11.5976 5.82713C11.0821 5.47894 10.4731 5.29538 9.8511 5.30072C9.47309 5.30072 9.11749 5.36372 8.7913 5.47922C8.77726 5.06829 8.74527 4.65816 8.69539 4.25002ZM8.09969 5.83063C8.09397 5.30206 8.05728 4.77429 7.98979 4.25002H4.01099C3.93654 4.83037 3.8996 5.41492 3.90039 6.00002C3.90039 6.61252 3.93959 7.19982 4.01099 7.75002H6.79839C6.98879 6.96042 7.44939 6.27373 8.09969 5.83063ZM6.70249 8.45002H4.12299C4.24059 9.06112 4.40089 9.60993 4.59199 10.074C4.80269 10.5871 5.04559 10.9798 5.29759 11.2381C5.54819 11.4957 5.78549 11.6 6.00039 11.6C6.21529 11.6 6.45259 11.4957 6.70319 11.2381C6.88099 11.0561 7.05459 10.8062 7.21559 10.494C6.87189 9.84023 6.70039 9.18503 6.70039 8.57743L6.70249 8.45002ZM0.963194 8.45002C1.31284 9.16702 1.81128 9.80128 2.4253 10.3105C3.03931 10.8198 3.7548 11.1923 4.52409 11.4033C4.28883 11.0737 4.09423 10.717 3.94449 10.3407C3.72049 9.79473 3.53849 9.15493 3.41109 8.45002H0.963194ZM3.30539 7.75002H0.678994C0.493745 7.1852 0.399699 6.59445 0.400394 6.00002C0.400394 5.38892 0.498394 4.80092 0.678994 4.25002H3.30539C3.23679 4.80652 3.20039 5.39382 3.20039 6.00002C3.20039 6.60623 3.23679 7.19352 3.30539 7.75002ZM12.3004 8.57743C12.3004 7.15433 11.2749 6.00073 9.8511 6.00073C8.42799 6.00073 7.40039 7.15433 7.40039 8.57743C7.40039 9.64423 8.08779 11.0484 9.67959 12.2426C9.78109 12.3196 9.92109 12.3196 10.0226 12.2426C11.6158 11.0484 12.3004 9.64423 12.3004 8.57743ZM10.9004 8.45002C10.9004 8.7285 10.7898 8.99557 10.5929 9.19249C10.3959 9.3894 10.1289 9.50002 9.85039 9.50002C9.57192 9.50002 9.30485 9.3894 9.10793 9.19249C8.91102 8.99557 8.80039 8.7285 8.80039 8.45002C8.80039 8.17155 8.91102 7.90448 9.10793 7.70756C9.30485 7.51065 9.57192 7.40002 9.85039 7.40002C10.1289 7.40002 10.3959 7.51065 10.5929 7.70756C10.7898 7.90448 10.9004 8.17155 10.9004 8.45002Z" fill="#0C608D"/>
</svg>
