<svg width="14" height="14" viewBox="0 0 14 14" fill="none" xmlns="http://www.w3.org/2000/svg">
<path d="M9.52734 12.25V13.3438C9.52734 13.7062 9.23354 14 8.87109 14H1.43359C1.07115 14 0.777344 13.7062 0.777344 13.3438V3.28125C0.777344 2.91881 1.07115 2.625 1.43359 2.625H3.40234V10.7188C3.40234 11.5631 4.08925 12.25 4.93359 12.25H9.52734ZM9.52734 2.84375V0H4.93359C4.57115 0 4.27734 0.293809 4.27734 0.65625V10.7188C4.27734 11.0812 4.57115 11.375 4.93359 11.375H12.3711C12.7335 11.375 13.0273 11.0812 13.0273 10.7188V3.5H10.1836C9.82266 3.5 9.52734 3.20469 9.52734 2.84375ZM12.8351 1.9953L11.032 0.192199C10.909 0.0691366 10.7421 9.09989e-07 10.568 0L10.4023 0V2.625H13.0273V2.45932C13.0273 2.28528 12.9582 2.11837 12.8351 1.9953Z" fill="#5E5E66"/>
</svg>
