<svg width="20" height="20" viewBox="0 0 20 20" fill="none" xmlns="http://www.w3.org/2000/svg">
<path d="M5.93818 16.3146H18.3804C16.483 15.0861 15.8505 9.0641 15.8505 7.71524C15.8505 7.39092 15.8252 7.07274 15.7746 6.76194L5.93818 16.3146ZM13.8923 3.27184C13.0304 2.47185 11.9528 1.92537 10.7843 1.6957C10.8019 1.52489 10.7825 1.35238 10.7273 1.18929C10.6721 1.02621 10.5823 0.876174 10.4637 0.748865C10.3451 0.621556 10.2004 0.519799 10.0388 0.450156C9.87722 0.380514 9.70241 0.344532 9.52564 0.344532C9.34886 0.344532 9.17405 0.380514 9.01248 0.450156C8.85091 0.519799 8.70615 0.621556 8.58756 0.748865C8.46897 0.876174 8.37917 1.02621 8.32396 1.18929C8.26874 1.35238 8.24934 1.52489 8.26699 1.6957C6.83743 1.97809 5.55227 2.73153 4.62904 3.82848C3.70582 4.92543 3.20127 6.29849 3.20079 7.71524C3.20079 8.81841 2.77703 13.0493 1.58416 15.2249L13.8923 3.27184ZM12.0556 17.543C12.0556 18.1947 11.789 18.8196 11.3146 19.2804C10.8401 19.7411 10.1966 20 9.52564 20C8.85466 20 8.21115 19.7411 7.7367 19.2804C7.26224 18.8196 6.9957 18.1947 6.9957 17.543H12.0556ZM0.196488 18.3108C0.0706787 18.433 -3.7494e-09 18.5987 0 18.7715C3.7494e-09 18.9443 0.0706787 19.11 0.196488 19.2322C0.322297 19.3544 0.49293 19.423 0.670851 19.423C0.848772 19.423 1.01941 19.3544 1.14521 19.2322L19.8035 1.11218C19.8658 1.05168 19.9152 0.979859 19.9489 0.900815C19.9826 0.821772 20 0.737054 20 0.651498C20 0.565942 19.9826 0.481224 19.9489 0.40218C19.9152 0.323137 19.8658 0.251316 19.8035 0.190819C19.7412 0.130322 19.6673 0.0823332 19.5859 0.0495923C19.5045 0.0168515 19.4172 0 19.3291 0C19.2411 0 19.1538 0.0168515 19.0724 0.0495923C18.991 0.0823332 18.9171 0.130322 18.8548 0.190819L0.196488 18.3108Z" fill="#AAAAB1"/>
</svg>
