<svg width="18" height="18" viewBox="0 0 18 18" fill="none" xmlns="http://www.w3.org/2000/svg">
<path fill-rule="evenodd" clip-rule="evenodd" d="M11.0063 0.790607C11.1542 0.739872 11.3142 0.736597 11.464 0.781241C11.6138 0.825884 11.7459 0.916215 11.8418 1.03961L17.0918 7.78961C17.1942 7.92126 17.2498 8.08331 17.2498 8.25011C17.2498 8.41691 17.1942 8.57895 17.0918 8.71061L11.8418 15.4606C11.7458 15.5839 11.6138 15.6741 11.464 15.7186C11.3143 15.7632 11.1544 15.7599 11.0066 15.7092C10.8588 15.6585 10.7306 15.5629 10.6398 15.4358C10.549 15.3086 10.5001 15.1563 10.5001 15.0001V12.0076C6.46582 12.0916 4.52782 12.8574 3.55432 13.6899C2.62882 14.4811 2.45932 15.4119 2.28307 16.3869L2.23732 16.6381C2.20366 16.8179 2.10547 16.9792 1.96121 17.0916C1.81696 17.2041 1.63658 17.2599 1.45402 17.2487C1.27147 17.2374 1.09931 17.1599 0.96994 17.0306C0.840572 16.9013 0.762911 16.7292 0.751569 16.5466C0.622569 14.4856 0.816069 11.4991 2.27182 9.00086C3.68482 6.57611 6.22882 4.71161 10.5001 4.51661V1.50011C10.5 1.34384 10.5488 1.19147 10.6396 1.06427C10.7303 0.937068 10.8585 0.841392 11.0063 0.790607V0.790607Z" fill="#56BBF1"/>
</svg>
